<svg width="32" height="24" viewBox="0 0 32 24" fill="none" xmlns="http://www.w3.org/2000/svg">
    <path
        d="M27.107 2.00165C25.0084 1.05428 22.7883 0.381129 20.5052 0C20.2209 0.49604 19.8886 1.16322 19.6595 1.69399C17.198 1.33688 14.7591 1.33688 12.3429 1.69399C12.1139 1.16334 11.7741 0.49604 11.4871 0C9.20186 0.381305 6.97982 1.05617 4.88024 2.00659C0.702241 8.09813 -0.430384 14.0382 0.135866 19.8942C2.90699 21.8908 5.59249 23.1037 8.23274 23.8974C8.88891 23.0268 9.46895 22.105 9.96687 21.1417C9.0189 20.7935 8.10503 20.3644 7.23612 19.8595C7.46478 19.6959 7.68806 19.5255 7.90562 19.3485C13.1709 21.7246 18.8919 21.7246 24.0944 19.3485C24.3129 19.5243 24.5361 19.6947 24.7637 19.8595C23.8934 20.3657 22.9779 20.7957 22.028 21.1442C22.5287 22.1115 23.1077 23.0341 23.7621 23.8998C26.4049 23.1062 29.0929 21.8933 31.864 19.8942C32.5285 13.1057 30.729 7.22014 27.107 2.00165ZM10.6842 16.2929C9.10362 16.2929 7.80737 14.8691 7.80737 13.1355C7.80737 11.4018 9.07599 9.97568 10.6842 9.97568C12.2926 9.97568 13.5887 11.3993 13.5611 13.1355C13.5636 14.8691 12.2926 16.2929 10.6842 16.2929ZM21.3156 16.2929C19.735 16.2929 18.4389 14.8691 18.4389 13.1355C18.4389 11.4018 19.7074 9.97568 21.3156 9.97568C22.924 9.97568 24.2201 11.3993 24.1925 13.1355C24.1925 14.8691 22.924 16.2929 21.3156 16.2929Z"
        fill="#5865F2" />
</svg>